<svg xmlns="http://www.w3.org/2000/svg" width="512.4" height="143.3" viewBox="0 0 512.4 143.3"><defs><style>
      .cls-1 {
        fill: #3c4354;
      }

      .cls-2 {
        fill: #673ab7;
      }

      .cls-3 {
        fill: #6f7582;
      }
    </style></defs><g id="Layer_2" data-name="Layer 2"><g id="Layer_3" data-name="Layer 3"><g><path class="cls-1" d="M341.4,4.7A4.5,4.5,0,0,0,336.9.2h-7.1a4.5,4.5,0,0,0-4.4,4.5V42.3h0a15.1,15.1,0,0,1-15,15.1H284.9v16h26.7a29.8,29.8,0,0,0,29.8-29.8c0-.4-.1-.9-.1-1.4h.1Z"></path><path class="cls-1" d="M117.5,57.5H85.7a15.1,15.1,0,0,1-15.1-15h0V4.7A4.5,4.5,0,0,0,66.2.2H29.7A29.7,29.7,0,0,0,0,30v1.2H0V69a4.5,4.5,0,0,0,4.4,4.5h7.1A4.5,4.5,0,0,0,16,69V31.2h0a15.1,15.1,0,0,1,15.1-15H54.6V42.5h.1c0,.4-.1.8-.1,1.2A29.8,29.8,0,0,0,84.4,73.5h33.1A4.5,4.5,0,0,0,122,69V61.9A4.5,4.5,0,0,0,117.5,57.5Z"></path><path class="cls-1" d="M226,47.8a36.7,36.7,0,0,0-61.7-36.3A29.9,29.9,0,0,0,141,.2H90.6a4.5,4.5,0,0,0-4.4,4.5v7.1a4.4,4.4,0,0,0,4.4,4.4h49a15.1,15.1,0,0,1,15.1,14.9,50.9,50.9,0,0,0-.4,5.6,36.6,36.6,0,0,0,62,26.5,30,30,0,0,0,22.4,10.2h1.4V57.4H240A15,15,0,0,1,226,47.8Zm-35,7.3a18.5,18.5,0,1,1,18.5-18.4A18.4,18.4,0,0,1,191,55.1Z"></path><rect class="cls-1" x="244.4" y="57.6" width="16" height="15.97" rx="4.4"></rect><rect class="cls-1" x="265.2" y="57.6" width="16" height="15.97" rx="4.4"></rect><rect class="cls-1" x="278.8" y="0.2" width="33.8" height="15.97" rx="4.4"></rect><path class="cls-1" d="M152,57.6h-8.9V48.7a4.4,4.4,0,0,0-4.4-4.5h-7.1a4.5,4.5,0,0,0-4.4,4.5V69.1a4.4,4.4,0,0,0,4.4,4.4H152a4.4,4.4,0,0,0,4.4-4.4V62A4.3,4.3,0,0,0,152,57.6Z"></path></g><g><path class="cls-2" d="M512.4,46.4A46.4,46.4,0,0,0,466,0H403.6a12.5,12.5,0,0,0-12.4,12.5h0a12.5,12.5,0,0,0,12.4,12.4h60.3a23.6,23.6,0,0,1,23.6,23.4H437.6a46.4,46.4,0,0,0-46.4,46.4v1.7h0v24.9H499.9a12.5,12.5,0,1,0,0-24.9H416.1a23.6,23.6,0,0,1,23.6-23.2h72.7V48.3h-.1A12.1,12.1,0,0,0,512.4,46.4Z"></path><path class="cls-1" d="M490.8,113A15.2,15.2,0,1,0,506,128.2,15.2,15.2,0,0,0,490.8,113Zm0,21.6a6.5,6.5,0,1,1,6.5-6.5A6.5,6.5,0,0,1,490.8,134.6Z"></path><path class="cls-1" d="M409,112.9a15.2,15.2,0,1,0,15.1,15.2A15.2,15.2,0,0,0,409,112.9Zm-.1,21.6a6.5,6.5,0,1,1,6.5-6.5A6.5,6.5,0,0,1,408.9,134.5Z"></path><path class="cls-1" d="M450.4,113a15.2,15.2,0,1,0,15.2,15.2A15.2,15.2,0,0,0,450.4,113Zm-.1,21.6a6.5,6.5,0,1,1,6.5-6.5A6.5,6.5,0,0,1,450.3,134.6Z"></path></g><g><path class="cls-3" d="M2.9,110.1H19.5a2.8,2.8,0,1,1,0,5.6H14v24.9a2.7,2.7,0,0,1-.8,1.9,2.6,2.6,0,0,1-2,.8,2.2,2.2,0,0,1-1.9-.8,2.4,2.4,0,0,1-.8-1.9V115.7H2.9a3,3,0,0,1-2-.8,3.2,3.2,0,0,1,0-4A3,3,0,0,1,2.9,110.1Z"></path><path class="cls-3" d="M33.1,143.3a2.2,2.2,0,0,1-1.9-.8,2.4,2.4,0,0,1-.8-1.9V112.9a2.7,2.7,0,1,1,5.4,0v27.7a2.4,2.4,0,0,1-.8,1.9A2.2,2.2,0,0,1,33.1,143.3Z"></path><path class="cls-3" d="M71.8,143.3a2.7,2.7,0,0,1-2.7-2.7V121.2l-7.5,9.9a2.6,2.6,0,0,1-4.4,0l-7.5-9.9v19.4a2.4,2.4,0,0,1-.8,1.9,2.4,2.4,0,0,1-2,.8,2.7,2.7,0,0,1-2.7-2.7V112.9A2.2,2.2,0,0,1,45,111a2.5,2.5,0,0,1,2-.9,2.8,2.8,0,0,1,2.1,1.1l10.3,13.7,10.2-13.7a2.9,2.9,0,0,1,2.2-1.1,2.5,2.5,0,0,1,2,.9,2.2,2.2,0,0,1,.8,1.9v27.7a2.4,2.4,0,0,1-.8,1.9A2.4,2.4,0,0,1,71.8,143.3Z"></path><path class="cls-3" d="M104.4,136.4a3.3,3.3,0,0,1,2.2-.2,3.1,3.1,0,0,1,1.6,1.4,2.6,2.6,0,0,1,.2,2.1,2.6,2.6,0,0,1-1.3,1.6,15.7,15.7,0,0,1-7.9,2,16,16,0,0,1-8.4-2.2,17.2,17.2,0,0,1-6-6,16.9,16.9,0,0,1,0-16.7,17.2,17.2,0,0,1,6-6,16,16,0,0,1,8.4-2.3,16.8,16.8,0,0,1,7.9,2,2.7,2.7,0,0,1,1.3,1.7,2.6,2.6,0,0,1-.2,2.1,2.6,2.6,0,0,1-1.6,1.3,2.8,2.8,0,0,1-2.2-.2,10.6,10.6,0,0,0-5.2-1.3,11.1,11.1,0,0,0-9.6,5.5,10.3,10.3,0,0,0-1.5,5.5,10.7,10.7,0,0,0,1.5,5.6,11.8,11.8,0,0,0,4,4,10.9,10.9,0,0,0,5.6,1.5A10.7,10.7,0,0,0,104.4,136.4Z"></path><path class="cls-3" d="M137.3,110.1a2.8,2.8,0,0,1,2,.8,2.6,2.6,0,0,1,.8,2v27.7a2.4,2.4,0,0,1-.8,1.9,2.4,2.4,0,0,1-2,.8,2.4,2.4,0,0,1-1.9-.8,2.7,2.7,0,0,1-.8-1.9V129.5H122.2v11.1a2.5,2.5,0,0,1-.9,1.9,2.4,2.4,0,0,1-1.9.8,2.6,2.6,0,0,1-2-.8,2.7,2.7,0,0,1-.8-1.9V112.9a2.7,2.7,0,0,1,2.8-2.8,2.7,2.7,0,0,1,1.9.8,2.7,2.7,0,0,1,.9,2V124h12.4V112.9a3,3,0,0,1,.8-2A2.7,2.7,0,0,1,137.3,110.1Z"></path><path class="cls-3" d="M166.5,137.8a2.6,2.6,0,0,1,2,.8,2.8,2.8,0,0,1,.8,2,2.7,2.7,0,0,1-.8,1.9,2.6,2.6,0,0,1-2,.8H151.3a2.6,2.6,0,0,1-2-.8,2.7,2.7,0,0,1-.8-1.9V112.9a2.7,2.7,0,0,1,2.8-2.8h15.2a2.8,2.8,0,1,1,0,5.6H154.1V124h9.6a2.4,2.4,0,0,1,2,.8,2.7,2.7,0,0,1,.8,1.9,3,3,0,0,1-.8,2,2.8,2.8,0,0,1-2,.8h-9.6v8.3Z"></path><path class="cls-3" d="M198.2,110.1a2.7,2.7,0,0,1,2.8,2.8v27.7a2.7,2.7,0,0,1-.8,1.9,2.9,2.9,0,0,1-4,0,2.7,2.7,0,0,1-.8-1.9V129.5H183v11.1a2.7,2.7,0,0,1-.8,1.9,2.6,2.6,0,0,1-2,.8,2.2,2.2,0,0,1-1.9-.8,2.5,2.5,0,0,1-.9-1.9V112.9a2.7,2.7,0,0,1,.9-2,2.6,2.6,0,0,1,1.9-.8,2.7,2.7,0,0,1,2.8,2.8V124h12.4V112.9a2.7,2.7,0,0,1,2.8-2.8Z"></path><path class="cls-3" d="M231.7,122.7a17.4,17.4,0,0,1,3.2,1.2,17.7,17.7,0,0,1,4.4,3.1,8.4,8.4,0,0,1,2.4,5.4v.4a10.2,10.2,0,0,1-3,7.3,11.2,11.2,0,0,1-8.1,3.2h-.4a10.3,10.3,0,0,1-9.2-5.9,6.9,6.9,0,0,1-.2-1.3,2.3,2.3,0,0,1,.4-1.4,3.2,3.2,0,0,1,1.2-1.1l1.1-.2a2.4,2.4,0,0,1,1.5.4,2.5,2.5,0,0,1,1.1,1.2,4.9,4.9,0,0,0,4.3,2.8h.3a5.5,5.5,0,0,0,4-1.5,4.9,4.9,0,0,0,1.5-3.5h0a3,3,0,0,0-1.3-2.1,9.2,9.2,0,0,0-2.5-1.7l-2.3-.9h-.2c-4.9-1.8-7.4-4.9-7.4-9.1v-.4a8,8,0,0,1,3.3-6.1,9.8,9.8,0,0,1,6.5-2.2h.4a10,10,0,0,1,5.7,2.1,3.1,3.1,0,0,1,1.1,2.2,2.8,2.8,0,0,1-4.5,2.2,4.5,4.5,0,0,0-2.5-.9h-.3a5.5,5.5,0,0,0-2.9.8,2.4,2.4,0,0,0-1.2,2.1v.2a3,3,0,0,0,.5,1.9,7.7,7.7,0,0,0,1.3,1.2Z"></path><path class="cls-3" d="M270.3,110.1a2.8,2.8,0,0,1,2,.8,2.6,2.6,0,0,1,.8,2v27.7a2.4,2.4,0,0,1-.8,1.9,2.4,2.4,0,0,1-2,.8,2.7,2.7,0,0,1-2.7-2.7V129.5H255.1v11.1a2.4,2.4,0,0,1-.8,1.9,2.4,2.4,0,0,1-2,.8,2.4,2.4,0,0,1-1.9-.8,2.7,2.7,0,0,1-.8-1.9V112.9a3,3,0,0,1,.8-2,2.7,2.7,0,0,1,1.9-.8,2.8,2.8,0,0,1,2,.8,2.6,2.6,0,0,1,.8,2V124h12.5V112.9a2.6,2.6,0,0,1,.8-2A2.7,2.7,0,0,1,270.3,110.1Z"></path><path class="cls-3" d="M297.4,143.3a14.6,14.6,0,0,1-8-2.2,17.5,17.5,0,0,1-5.8-6,17.7,17.7,0,0,1,0-16.7,17.5,17.5,0,0,1,5.8-6,14.7,14.7,0,0,1,8-2.3,15.2,15.2,0,0,1,8,2.3,16.4,16.4,0,0,1,5.7,6,16.9,16.9,0,0,1,0,16.7,16.4,16.4,0,0,1-5.7,6A15.1,15.1,0,0,1,297.4,143.3Zm0-27.6a9.3,9.3,0,0,0-5.2,1.5,10.5,10.5,0,0,0-3.8,4,11.2,11.2,0,0,0-1.4,5.5,11.6,11.6,0,0,0,1.4,5.6,11.2,11.2,0,0,0,3.8,4,9.3,9.3,0,0,0,5.2,1.5,9.5,9.5,0,0,0,5.2-1.5,10.2,10.2,0,0,0,3.7-4,10.6,10.6,0,0,0,1.4-5.6,10.3,10.3,0,0,0-1.4-5.5,10.1,10.1,0,0,0-8.9-5.5Z"></path><path class="cls-3" d="M324.2,143.3a2.6,2.6,0,0,1-2-.8,2.7,2.7,0,0,1-.8-1.9V112.9a2.7,2.7,0,0,1,2.8-2.8h7.5l1.8.2a11.7,11.7,0,0,1,3.6,1.2c3.8,2,5.7,5.2,5.7,9.7a10.2,10.2,0,0,1-.2,1.8,11.3,11.3,0,0,1-1.1,3.6,9.9,9.9,0,0,1-3.9,4.2,11.5,11.5,0,0,1-5.9,1.5H327v8.3a2.5,2.5,0,0,1-.9,1.9A2.4,2.4,0,0,1,324.2,143.3Zm2.8-27.6v11h4.7c2.4,0,4-.8,4.8-2.5a7.8,7.8,0,0,0,.5-1.4,6.1,6.1,0,0,0,.3-1.1v-.5q0-3.6-2.7-4.8l-1.4-.5-1.5-.2Z"></path></g></g></g></svg>